<mxfile host="app.diagrams.net" modified="2023-12-21T07:59:30.141Z" agent="Mozilla/5.0 (Windows NT 10.0; Win64; x64) AppleWebKit/537.36 (KHTML, like Gecko) Chrome/120.0.0.0 Safari/537.36" etag="wBkT9X6uHHvSbsOnqw0x" version="22.1.11" type="device">
  <diagram id="mKLGtlqu1TJgX5sNCrC6" name="第 1 页">
    <mxGraphModel dx="3559" dy="1445" grid="1" gridSize="10" guides="1" tooltips="1" connect="1" arrows="1" fold="1" page="1" pageScale="1" pageWidth="1169" pageHeight="827" math="0" shadow="0">
      <root>
        <mxCell id="0" />
        <mxCell id="1" parent="0" />
        <mxCell id="HtiF2qU-OBi0skmCbqNv-8" value="" style="endArrow=none;startArrow=none;html=1;rounded=0;startFill=0;endFill=0;edgeStyle=orthogonalEdgeStyle;dashed=1;dashPattern=1 2;fontSize=14;entryX=0.25;entryY=0;entryDx=0;entryDy=0;exitX=0.862;exitY=0.049;exitDx=0;exitDy=0;exitPerimeter=0;fontFamily=Times New Roman;" parent="1" source="b1KpcRNN4s81-unmqNno-19" target="b1KpcRNN4s81-unmqNno-23" edge="1">
          <mxGeometry width="50" height="50" relative="1" as="geometry">
            <mxPoint x="-1080" y="-310" as="sourcePoint" />
            <mxPoint x="-483" y="-367" as="targetPoint" />
            <Array as="points">
              <mxPoint x="-1081" y="-350" />
              <mxPoint x="-788" y="-350" />
            </Array>
          </mxGeometry>
        </mxCell>
        <mxCell id="ZyNyjJbmjPur9EzDLIDT-93" value="&lt;b style=&quot;font-size: 14px;&quot;&gt;Update request&lt;/b&gt;" style="rounded=1;whiteSpace=wrap;html=1;fontSize=14;container=0;fontFamily=Times New Roman;" parent="1" vertex="1">
          <mxGeometry x="-518" y="11.912727272727253" width="140" height="31.295454545454543" as="geometry" />
        </mxCell>
        <mxCell id="b1KpcRNN4s81-unmqNno-26" style="edgeStyle=orthogonalEdgeStyle;rounded=0;orthogonalLoop=1;jettySize=auto;html=1;exitX=0.5;exitY=1;exitDx=0;exitDy=0;entryX=0.5;entryY=0;entryDx=0;entryDy=0;fontFamily=Times New Roman;fontSize=14;" parent="1" source="b1KpcRNN4s81-unmqNno-28" target="ZyNyjJbmjPur9EzDLIDT-93" edge="1">
          <mxGeometry relative="1" as="geometry">
            <mxPoint x="-444" y="172.45818181818177" as="sourcePoint" />
            <mxPoint x="-448" y="10.64" as="targetPoint" />
          </mxGeometry>
        </mxCell>
        <mxCell id="ZyNyjJbmjPur9EzDLIDT-94" value="" style="endArrow=classic;html=1;rounded=0;exitX=0.5;exitY=1;exitDx=0;exitDy=0;entryX=0.5;entryY=0;entryDx=0;entryDy=0;fontFamily=Times New Roman;fontSize=14;" parent="1" source="ZyNyjJbmjPur9EzDLIDT-93" target="b1KpcRNN4s81-unmqNno-27" edge="1">
          <mxGeometry width="50" height="50" relative="1" as="geometry">
            <mxPoint x="-748" y="-39.36" as="sourcePoint" />
            <mxPoint x="-698" y="-89.36" as="targetPoint" />
          </mxGeometry>
        </mxCell>
        <mxCell id="b1KpcRNN4s81-unmqNno-3" value="Lab Technician" style="swimlane;fontStyle=1;align=center;verticalAlign=top;childLayout=stackLayout;horizontal=1;startSize=30;horizontalStack=0;resizeParent=1;resizeParentMax=0;resizeLast=0;collapsible=0;marginBottom=0;html=1;whiteSpace=wrap;movable=0;resizable=0;rotatable=0;deletable=0;editable=0;locked=1;connectable=0;container=0;" parent="1" vertex="1">
          <mxGeometry x="-1390" y="-750" width="445" height="890" as="geometry" />
        </mxCell>
        <mxCell id="b1KpcRNN4s81-unmqNno-4" value="" style="endArrow=classic;html=1;rounded=0;exitX=0;exitY=0.5;exitDx=0;exitDy=0;fontSize=14;edgeStyle=orthogonalEdgeStyle;fontFamily=Times New Roman;" parent="1" source="b1KpcRNN4s81-unmqNno-7" edge="1">
          <mxGeometry width="50" height="50" relative="1" as="geometry">
            <mxPoint x="-945" y="-522.6818181818182" as="sourcePoint" />
            <mxPoint x="-1147" y="-617.7272727272727" as="targetPoint" />
          </mxGeometry>
        </mxCell>
        <mxCell id="b1KpcRNN4s81-unmqNno-9" value="" style="endArrow=none;startArrow=none;html=1;rounded=0;startFill=0;endFill=0;edgeStyle=orthogonalEdgeStyle;dashed=1;dashPattern=1 2;fontSize=14;entryX=0;entryY=0.5;entryDx=0;entryDy=0;fontFamily=Times New Roman;" parent="1" target="b1KpcRNN4s81-unmqNno-10" edge="1">
          <mxGeometry width="50" height="50" relative="1" as="geometry">
            <mxPoint x="-1170" y="-620" as="sourcePoint" />
            <mxPoint x="-655" y="-641.6818181818182" as="targetPoint" />
            <Array as="points">
              <mxPoint x="-1009" y="-678" />
            </Array>
          </mxGeometry>
        </mxCell>
        <mxCell id="b1KpcRNN4s81-unmqNno-10" value="Request Form" style="rounded=0;whiteSpace=wrap;html=1;fontSize=14;container=0;fontFamily=Times New Roman;" parent="1" vertex="1">
          <mxGeometry x="-813" y="-697.3163636363636" width="100" height="36.31818181818182" as="geometry" />
        </mxCell>
        <mxCell id="b1KpcRNN4s81-unmqNno-11" style="edgeStyle=orthogonalEdgeStyle;rounded=0;orthogonalLoop=1;jettySize=auto;html=1;exitX=0.5;exitY=1;exitDx=0;exitDy=0;entryX=0.5;entryY=0;entryDx=0;entryDy=0;fontFamily=Times New Roman;fontSize=14;" parent="1" source="b1KpcRNN4s81-unmqNno-13" edge="1">
          <mxGeometry relative="1" as="geometry">
            <mxPoint x="-1135.995" y="-135.8600000000002" as="targetPoint" />
          </mxGeometry>
        </mxCell>
        <mxCell id="b1KpcRNN4s81-unmqNno-12" value="&lt;font style=&quot;font-size: 14px;&quot;&gt;Is Avaliable&lt;/font&gt;" style="edgeLabel;html=1;align=center;verticalAlign=middle;resizable=0;points=[];container=0;fontFamily=Times New Roman;fontSize=14;" parent="b1KpcRNN4s81-unmqNno-11" vertex="1" connectable="0">
          <mxGeometry x="-0.1319" y="7" relative="1" as="geometry">
            <mxPoint x="31" y="1" as="offset" />
          </mxGeometry>
        </mxCell>
        <mxCell id="b1KpcRNN4s81-unmqNno-13" value="" style="shape=rhombus;html=1;verticalLabelPosition=bottom;verticalAlignment=top;fontSize=14;container=0;fontFamily=Times New Roman;" parent="1" vertex="1">
          <mxGeometry x="-1156" y="-245.2009090909091" width="40" height="40" as="geometry" />
        </mxCell>
        <mxCell id="b1KpcRNN4s81-unmqNno-14" value="" style="edgeStyle=elbowEdgeStyle;html=1;elbow=horizontal;align=right;verticalAlign=bottom;endArrow=none;rounded=0;labelBackgroundColor=none;startArrow=classic;startSize=6;startFill=1;entryX=1;entryY=0.5;entryDx=0;entryDy=0;fontSize=14;exitX=0.5;exitY=0;exitDx=0;exitDy=0;fontFamily=Times New Roman;" parent="1" source="b1KpcRNN4s81-unmqNno-18" target="HtiF2qU-OBi0skmCbqNv-1" edge="1">
          <mxGeometry relative="1" as="geometry">
            <mxPoint x="-1240" y="-447.72727272727275" as="targetPoint" />
            <mxPoint x="-448" y="-430" as="sourcePoint" />
            <Array as="points">
              <mxPoint x="-448" y="-380" />
            </Array>
          </mxGeometry>
        </mxCell>
        <mxCell id="b1KpcRNN4s81-unmqNno-15" value="Not Available" style="edgeStyle=elbowEdgeStyle;html=1;elbow=vertical;verticalAlign=bottom;endArrow=classic;rounded=0;labelBackgroundColor=none;endSize=6;endFill=1;entryX=0.5;entryY=0;entryDx=0;entryDy=0;fontSize=14;exitX=0;exitY=0.5;exitDx=0;exitDy=0;fontFamily=Times New Roman;" parent="1" source="b1KpcRNN4s81-unmqNno-13" target="b1KpcRNN4s81-unmqNno-17" edge="1">
          <mxGeometry x="0.0092" relative="1" as="geometry">
            <mxPoint x="-1036" y="-229.7463636363636" as="targetPoint" />
            <Array as="points">
              <mxPoint x="-1298" y="-225.35999999999999" />
            </Array>
            <mxPoint as="offset" />
          </mxGeometry>
        </mxCell>
        <mxCell id="b1KpcRNN4s81-unmqNno-17" value="&lt;font style=&quot;font-size: 14px;&quot;&gt;&lt;b style=&quot;font-size: 14px;&quot;&gt;Booking instrument&lt;/b&gt;&lt;/font&gt;&lt;span style=&quot;font-size: 14px;&quot;&gt;&lt;b style=&quot;font-size: 14px;&quot;&gt;&lt;br style=&quot;font-size: 14px;&quot;&gt;&lt;/b&gt;&lt;/span&gt;" style="rounded=1;whiteSpace=wrap;html=1;fontSize=14;container=0;fontFamily=Times New Roman;" parent="1" vertex="1">
          <mxGeometry x="-1333.87" y="-190.72" width="113.87" height="30.72" as="geometry" />
        </mxCell>
        <mxCell id="b1KpcRNN4s81-unmqNno-19" value="&lt;div style=&quot;font-size: 14px;&quot;&gt;&lt;/div&gt;&lt;b style=&quot;border-color: var(--border-color); font-size: 14px;&quot;&gt;&lt;b style=&quot;border-color: var(--border-color); font-size: 14px;&quot;&gt;&lt;font style=&quot;border-color: var(--border-color); font-size: 14px;&quot;&gt;Getting&amp;nbsp;&lt;/font&gt;&lt;/b&gt;experiment&amp;nbsp;&lt;br style=&quot;font-size: 14px;&quot;&gt;&lt;b style=&quot;border-color: var(--border-color);&quot;&gt;instrument&lt;/b&gt;&amp;nbsp;infor&lt;/b&gt;&lt;b style=&quot;border-color: var(--border-color); font-size: 14px;&quot;&gt;&lt;br style=&quot;font-size: 14px;&quot;&gt;&lt;/b&gt;" style="rounded=1;whiteSpace=wrap;html=1;fontSize=14;container=0;fontFamily=Times New Roman;" parent="1" vertex="1">
          <mxGeometry x="-1210.25" y="-298.9054545454546" width="150" height="38.63636363636363" as="geometry" />
        </mxCell>
        <mxCell id="b1KpcRNN4s81-unmqNno-20" value="" style="endArrow=classic;html=1;rounded=0;exitX=0.5;exitY=1;exitDx=0;exitDy=0;edgeStyle=orthogonalEdgeStyle;entryX=0.5;entryY=0;entryDx=0;entryDy=0;fontSize=14;fontFamily=Times New Roman;" parent="1" source="b1KpcRNN4s81-unmqNno-18" target="b1KpcRNN4s81-unmqNno-19" edge="1">
          <mxGeometry width="50" height="50" relative="1" as="geometry">
            <mxPoint x="-960" y="-368.5227272727273" as="sourcePoint" />
            <mxPoint x="-910" y="-407.15909090909093" as="targetPoint" />
          </mxGeometry>
        </mxCell>
        <mxCell id="b1KpcRNN4s81-unmqNno-21" value="" style="endArrow=classic;html=1;rounded=0;exitX=0.5;exitY=1;exitDx=0;exitDy=0;entryX=0.5;entryY=0;entryDx=0;entryDy=0;fontSize=14;fontFamily=Times New Roman;" parent="1" source="b1KpcRNN4s81-unmqNno-19" target="b1KpcRNN4s81-unmqNno-13" edge="1">
          <mxGeometry width="50" height="50" relative="1" as="geometry">
            <mxPoint x="-855.25" y="-322.4736363636364" as="sourcePoint" />
            <mxPoint x="-805.25" y="-361.11" as="targetPoint" />
          </mxGeometry>
        </mxCell>
        <mxCell id="b1KpcRNN4s81-unmqNno-22" value="" style="endArrow=none;startArrow=none;html=1;rounded=0;startFill=0;endFill=0;edgeStyle=orthogonalEdgeStyle;dashed=1;dashPattern=1 2;fontSize=14;entryX=0.25;entryY=0;entryDx=0;entryDy=0;fontFamily=Times New Roman;" parent="1" source="b1KpcRNN4s81-unmqNno-23" target="b1KpcRNN4s81-unmqNno-18" edge="1">
          <mxGeometry width="50" height="50" relative="1" as="geometry">
            <mxPoint x="-1080" y="-310" as="sourcePoint" />
            <mxPoint x="-660" y="-354.22727272727275" as="targetPoint" />
            <Array as="points">
              <mxPoint x="-483" y="-350" />
            </Array>
          </mxGeometry>
        </mxCell>
        <mxCell id="b1KpcRNN4s81-unmqNno-25" value="" style="edgeStyle=elbowEdgeStyle;html=1;elbow=vertical;verticalAlign=bottom;startArrow=classic;endArrow=none;rounded=0;labelBackgroundColor=none;startSize=6;entryX=0.5;entryY=1;entryDx=0;entryDy=0;startFill=1;fontSize=14;exitX=0;exitY=0.5;exitDx=0;exitDy=0;fontFamily=Times New Roman;" parent="1" source="b1KpcRNN4s81-unmqNno-54" target="b1KpcRNN4s81-unmqNno-17" edge="1">
          <mxGeometry relative="1" as="geometry">
            <mxPoint x="-1050.25" y="-251.76909090909092" as="targetPoint" />
            <mxPoint x="-1191.37" y="-124.6554545454546" as="sourcePoint" />
            <Array as="points">
              <mxPoint x="-1298" y="-116.35999999999999" />
            </Array>
          </mxGeometry>
        </mxCell>
        <mxCell id="b1KpcRNN4s81-unmqNno-29" value="" style="endArrow=none;html=1;rounded=0;strokeWidth=4;fontFamily=Times New Roman;fontSize=14;" parent="1" edge="1">
          <mxGeometry width="50" height="50" relative="1" as="geometry">
            <mxPoint x="-1320" y="-617.7272727272727" as="sourcePoint" />
            <mxPoint x="-990" y="-617.7272727272727" as="targetPoint" />
          </mxGeometry>
        </mxCell>
        <mxCell id="b1KpcRNN4s81-unmqNno-30" value="" style="endArrow=classic;html=1;rounded=0;fontFamily=Times New Roman;fontSize=14;" parent="1" edge="1">
          <mxGeometry width="50" height="50" relative="1" as="geometry">
            <mxPoint x="-1266.5" y="-617.7272727272727" as="sourcePoint" />
            <mxPoint x="-1266.5" y="-594.5454545454545" as="targetPoint" />
          </mxGeometry>
        </mxCell>
        <mxCell id="b1KpcRNN4s81-unmqNno-31" value="&lt;b style=&quot;font-size: 14px;&quot;&gt;Checking order&lt;/b&gt;" style="rounded=1;whiteSpace=wrap;html=1;fontSize=14;container=0;fontFamily=Times New Roman;" parent="1" vertex="1">
          <mxGeometry x="-1301" y="-594.5454545454545" width="66" height="30.909090909090907" as="geometry" />
        </mxCell>
        <mxCell id="b1KpcRNN4s81-unmqNno-32" value="" style="shape=rhombus;html=1;verticalLabelPosition=bottom;verticalAlignment=top;fontSize=14;container=0;fontFamily=Times New Roman;" parent="1" vertex="1">
          <mxGeometry x="-1289.5" y="-548.5681818181818" width="40" height="40" as="geometry" />
        </mxCell>
        <mxCell id="b1KpcRNN4s81-unmqNno-33" value="" style="edgeStyle=elbowEdgeStyle;html=1;elbow=vertical;verticalAlign=bottom;endArrow=classic;rounded=0;labelBackgroundColor=none;endSize=6;endFill=1;fontSize=14;exitX=0.5;exitY=1;exitDx=0;exitDy=0;fontFamily=Times New Roman;" parent="1" source="b1KpcRNN4s81-unmqNno-32" edge="1">
          <mxGeometry x="0.0092" relative="1" as="geometry">
            <mxPoint x="-1269" y="-447.72727272727275" as="targetPoint" />
            <Array as="points">
              <mxPoint x="-1243.5" y="-463.1818181818182" />
            </Array>
            <mxPoint as="offset" />
            <mxPoint x="-1322.5" y="-463.18181818181836" as="sourcePoint" />
          </mxGeometry>
        </mxCell>
        <mxCell id="b1KpcRNN4s81-unmqNno-34" value="Not paid" style="edgeStyle=elbowEdgeStyle;html=1;elbow=vertical;verticalAlign=bottom;endArrow=classic;rounded=0;labelBackgroundColor=none;endSize=6;endFill=1;entryX=0.5;entryY=0;entryDx=0;entryDy=0;fontSize=14;fontFamily=Times New Roman;" parent="1" source="b1KpcRNN4s81-unmqNno-32" target="b1KpcRNN4s81-unmqNno-36" edge="1">
          <mxGeometry relative="1" as="geometry">
            <mxPoint x="-1363.5" y="-495.6363636363636" as="targetPoint" />
            <Array as="points">
              <mxPoint x="-1360.5" y="-529.25" />
            </Array>
          </mxGeometry>
        </mxCell>
        <mxCell id="b1KpcRNN4s81-unmqNno-35" value="" style="endArrow=classic;html=1;rounded=0;exitX=0.5;exitY=1;exitDx=0;exitDy=0;entryX=0.5;entryY=0;entryDx=0;entryDy=0;fontSize=14;fontFamily=Times New Roman;" parent="1" target="b1KpcRNN4s81-unmqNno-32" edge="1">
          <mxGeometry width="50" height="50" relative="1" as="geometry">
            <mxPoint x="-1268.5" y="-563.6363636363636" as="sourcePoint" />
            <mxPoint x="-938.75" y="-664.4772727272727" as="targetPoint" />
          </mxGeometry>
        </mxCell>
        <mxCell id="b1KpcRNN4s81-unmqNno-36" value="" style="ellipse;html=1;shape=endState;fillColor=strokeColor;container=0;fontFamily=Times New Roman;fontSize=14;" parent="1" vertex="1">
          <mxGeometry x="-1375.75" y="-509.54545454545456" width="30" height="30" as="geometry" />
        </mxCell>
        <mxCell id="b1KpcRNN4s81-unmqNno-37" style="edgeStyle=orthogonalEdgeStyle;rounded=0;orthogonalLoop=1;jettySize=auto;html=1;exitX=1;exitY=0.5;exitDx=0;exitDy=0;entryX=0.5;entryY=0;entryDx=0;entryDy=0;fontFamily=Times New Roman;fontSize=14;" parent="1" source="b1KpcRNN4s81-unmqNno-44" target="b1KpcRNN4s81-unmqNno-38" edge="1">
          <mxGeometry relative="1" as="geometry" />
        </mxCell>
        <mxCell id="b1KpcRNN4s81-unmqNno-38" value="&lt;b style=&quot;font-size: 14px;&quot;&gt;Provide feedback&lt;/b&gt;" style="rounded=1;whiteSpace=wrap;html=1;fontSize=14;movable=1;resizable=1;rotatable=1;deletable=1;editable=1;locked=0;connectable=1;container=0;fontFamily=Times New Roman;" parent="1" vertex="1">
          <mxGeometry x="-1050" y="-501.8181818181818" width="90" height="38.63636363636363" as="geometry" />
        </mxCell>
        <mxCell id="b1KpcRNN4s81-unmqNno-40" value="" style="endArrow=classic;html=1;rounded=0;entryX=0;entryY=0.5;entryDx=0;entryDy=0;fontSize=14;movable=1;resizable=1;rotatable=1;deletable=1;editable=1;locked=0;connectable=1;exitX=1;exitY=0.5;exitDx=0;exitDy=0;fontFamily=Times New Roman;" parent="1" source="b1KpcRNN4s81-unmqNno-38" edge="1">
          <mxGeometry width="50" height="50" relative="1" as="geometry">
            <mxPoint x="-910" y="-455.45454545454544" as="sourcePoint" />
            <mxPoint x="-531" y="-483.14136363636345" as="targetPoint" />
          </mxGeometry>
        </mxCell>
        <mxCell id="b1KpcRNN4s81-unmqNno-41" value="" style="endArrow=classic;html=1;rounded=0;fontFamily=Times New Roman;fontSize=14;" parent="1" edge="1">
          <mxGeometry width="50" height="50" relative="1" as="geometry">
            <mxPoint x="-1108.75" y="-617.7272727272727" as="sourcePoint" />
            <mxPoint x="-1108.75" y="-594.5454545454545" as="targetPoint" />
          </mxGeometry>
        </mxCell>
        <mxCell id="b1KpcRNN4s81-unmqNno-42" value="&lt;b style=&quot;font-size: 14px;&quot;&gt;Checking&amp;nbsp;&lt;br style=&quot;font-size: 14px;&quot;&gt;request detail&lt;br style=&quot;font-size: 14px;&quot;&gt;&lt;/b&gt;" style="rounded=1;whiteSpace=wrap;html=1;fontSize=14;container=0;fontFamily=Times New Roman;" parent="1" vertex="1">
          <mxGeometry x="-1160" y="-594.5454545454545" width="100" height="30.909090909090907" as="geometry" />
        </mxCell>
        <mxCell id="b1KpcRNN4s81-unmqNno-43" style="edgeStyle=orthogonalEdgeStyle;rounded=0;orthogonalLoop=1;jettySize=auto;html=1;exitX=0.5;exitY=1;exitDx=0;exitDy=0;fontFamily=Times New Roman;fontSize=14;" parent="1" source="b1KpcRNN4s81-unmqNno-44" edge="1">
          <mxGeometry relative="1" as="geometry">
            <mxPoint x="-1112.333333333333" y="-447.7272727272726" as="targetPoint" />
          </mxGeometry>
        </mxCell>
        <mxCell id="b1KpcRNN4s81-unmqNno-44" value="" style="shape=rhombus;html=1;verticalLabelPosition=bottom;verticalAlignment=top;fontSize=14;container=0;fontFamily=Times New Roman;" parent="1" vertex="1">
          <mxGeometry x="-1131.75" y="-548.5681818181818" width="40" height="40" as="geometry" />
        </mxCell>
        <mxCell id="b1KpcRNN4s81-unmqNno-45" value="" style="endArrow=classic;html=1;rounded=0;exitX=0.5;exitY=1;exitDx=0;exitDy=0;entryX=0.5;entryY=0;entryDx=0;entryDy=0;fontSize=14;fontFamily=Times New Roman;" parent="1" target="b1KpcRNN4s81-unmqNno-44" edge="1">
          <mxGeometry width="50" height="50" relative="1" as="geometry">
            <mxPoint x="-1110.75" y="-563.6363636363636" as="sourcePoint" />
            <mxPoint x="-781" y="-664.4772727272727" as="targetPoint" />
          </mxGeometry>
        </mxCell>
        <mxCell id="b1KpcRNN4s81-unmqNno-46" value="Invaild" style="text;html=1;align=center;verticalAlign=middle;resizable=0;points=[];autosize=1;strokeColor=none;fillColor=none;container=0;fontFamily=Times New Roman;fontSize=14;" parent="1" vertex="1">
          <mxGeometry x="-1100" y="-549.7272727272727" width="60" height="30" as="geometry" />
        </mxCell>
        <mxCell id="b1KpcRNN4s81-unmqNno-47" value="" style="endArrow=none;html=1;rounded=0;strokeWidth=4;fontFamily=Times New Roman;fontSize=14;" parent="1" edge="1">
          <mxGeometry width="50" height="50" relative="1" as="geometry">
            <mxPoint x="-1307.5" y="-447.72727272727275" as="sourcePoint" />
            <mxPoint x="-1027.5" y="-447.72727272727275" as="targetPoint" />
          </mxGeometry>
        </mxCell>
        <mxCell id="b1KpcRNN4s81-unmqNno-48" value="Payment&lt;br style=&quot;border-color: var(--border-color); font-size: 14px;&quot;&gt;&lt;span style=&quot;font-size: 14px;&quot;&gt;completed&lt;/span&gt;" style="text;html=1;align=center;verticalAlign=middle;resizable=0;points=[];autosize=1;strokeColor=none;fillColor=none;container=0;fontFamily=Times New Roman;fontSize=14;" parent="1" vertex="1">
          <mxGeometry x="-1271.87" y="-506.8181818181818" width="80" height="50" as="geometry" />
        </mxCell>
        <mxCell id="b1KpcRNN4s81-unmqNno-49" value="Valid" style="text;html=1;align=center;verticalAlign=middle;resizable=0;points=[];autosize=1;strokeColor=none;fillColor=none;container=0;fontFamily=Times New Roman;fontSize=14;" parent="1" vertex="1">
          <mxGeometry x="-1158" y="-501.8181818181818" width="50" height="30" as="geometry" />
        </mxCell>
        <mxCell id="b1KpcRNN4s81-unmqNno-50" value="" style="endArrow=none;startArrow=none;html=1;rounded=0;startFill=0;endFill=0;edgeStyle=orthogonalEdgeStyle;dashed=1;dashPattern=1 2;fontSize=14;exitX=0.75;exitY=0;exitDx=0;exitDy=0;entryX=0.25;entryY=0;entryDx=0;entryDy=0;fontFamily=Times New Roman;" parent="1" source="b1KpcRNN4s81-unmqNno-38" target="b1KpcRNN4s81-unmqNno-39" edge="1">
          <mxGeometry width="50" height="50" relative="1" as="geometry">
            <mxPoint x="-875" y="-484.04545454545456" as="sourcePoint" />
            <mxPoint x="-655" y="-484.04545454545456" as="targetPoint" />
            <Array as="points">
              <mxPoint x="-990" y="-502" />
              <mxPoint x="-990" y="-561" />
              <mxPoint x="-488" y="-561" />
            </Array>
          </mxGeometry>
        </mxCell>
        <mxCell id="b1KpcRNN4s81-unmqNno-51" value="Provide Feedback" style="rounded=0;whiteSpace=wrap;html=1;fontSize=14;container=0;fontFamily=Times New Roman;" parent="1" vertex="1">
          <mxGeometry x="-815" y="-579.0909090909091" width="100" height="36.31818181818182" as="geometry" />
        </mxCell>
        <mxCell id="b1KpcRNN4s81-unmqNno-52" value="" style="endArrow=none;startArrow=none;html=1;rounded=0;startFill=0;endFill=0;edgeStyle=orthogonalEdgeStyle;dashed=1;dashPattern=1 2;fontSize=14;exitX=0.84;exitY=0.014;exitDx=0;exitDy=0;exitPerimeter=0;entryX=0.5;entryY=0;entryDx=0;entryDy=0;fontFamily=Times New Roman;" parent="1" source="ZyNyjJbmjPur9EzDLIDT-97" target="b1KpcRNN4s81-unmqNno-28" edge="1">
          <mxGeometry width="50" height="50" relative="1" as="geometry">
            <mxPoint x="-873" y="-91.04181818181824" as="sourcePoint" />
            <mxPoint x="-653" y="-91.04181818181824" as="targetPoint" />
            <Array as="points">
              <mxPoint x="-1085" y="-67.36" />
              <mxPoint x="-1088" y="-67.36" />
              <mxPoint x="-1088" y="-129.35999999999999" />
              <mxPoint x="-448" y="-129.35999999999999" />
            </Array>
          </mxGeometry>
        </mxCell>
        <mxCell id="b1KpcRNN4s81-unmqNno-53" value="Test Form" style="rounded=0;whiteSpace=wrap;html=1;fontSize=14;container=0;fontFamily=Times New Roman;" parent="1" vertex="1">
          <mxGeometry x="-814" y="-149.35636363636362" width="100" height="36.31818181818182" as="geometry" />
        </mxCell>
        <mxCell id="b1KpcRNN4s81-unmqNno-54" value="" style="shape=rhombus;html=1;verticalLabelPosition=bottom;verticalAlignment=top;fontSize=14;container=0;fontFamily=Times New Roman;" parent="1" vertex="1">
          <mxGeometry x="-1156" y="-136.63272727272724" width="40" height="40" as="geometry" />
        </mxCell>
        <mxCell id="ZyNyjJbmjPur9EzDLIDT-90" value="" style="endArrow=none;startArrow=none;html=1;rounded=0;startFill=0;endFill=0;edgeStyle=orthogonalEdgeStyle;dashed=1;dashPattern=1 2;fontSize=14;entryX=1;entryY=0.5;entryDx=0;entryDy=0;exitX=0.171;exitY=0.014;exitDx=0;exitDy=0;exitPerimeter=0;fontFamily=Times New Roman;" parent="1" source="b1KpcRNN4s81-unmqNno-7" target="b1KpcRNN4s81-unmqNno-10" edge="1">
          <mxGeometry width="50" height="50" relative="1" as="geometry">
            <mxPoint x="-251.5" y="-672" as="sourcePoint" />
            <mxPoint x="-611" y="-680" as="targetPoint" />
            <Array as="points">
              <mxPoint x="-504" y="-679" />
            </Array>
          </mxGeometry>
        </mxCell>
        <mxCell id="b1KpcRNN4s81-unmqNno-5" value="" style="ellipse;fillColor=strokeColor;html=1;fontSize=14;container=0;fontFamily=Times New Roman;" parent="1" vertex="1">
          <mxGeometry x="-463" y="-709.9972727272727" width="30" height="30" as="geometry" />
        </mxCell>
        <mxCell id="b1KpcRNN4s81-unmqNno-6" value="&lt;b style=&quot;border-color: var(--border-color); font-size: 14px;&quot;&gt; Laboratory Information System&lt;/b&gt;" style="swimlane;fontStyle=1;align=center;verticalAlign=top;childLayout=stackLayout;horizontal=1;startSize=30;horizontalStack=0;resizeParent=1;resizeParentMax=0;resizeLast=0;collapsible=0;marginBottom=0;html=1;whiteSpace=wrap;movable=0;resizable=0;rotatable=0;deletable=0;editable=0;locked=1;connectable=0;container=0;" parent="1" vertex="1">
          <mxGeometry x="-595" y="-750" width="290" height="890" as="geometry" />
        </mxCell>
        <mxCell id="b1KpcRNN4s81-unmqNno-7" value="&lt;font style=&quot;font-size: 14px;&quot;&gt;&lt;b style=&quot;font-size: 14px;&quot;&gt;&lt;font style=&quot;font-size: 14px;&quot;&gt;Create a re&lt;/font&gt;quest&lt;/b&gt;&lt;/font&gt;" style="rounded=1;whiteSpace=wrap;html=1;fontSize=14;container=0;fontFamily=Times New Roman;" parent="1" vertex="1">
          <mxGeometry x="-533" y="-661" width="170" height="38.63636363636363" as="geometry" />
        </mxCell>
        <mxCell id="b1KpcRNN4s81-unmqNno-8" value="" style="endArrow=classic;html=1;rounded=0;exitX=0.5;exitY=1;exitDx=0;exitDy=0;entryX=0.5;entryY=0;entryDx=0;entryDy=0;fontSize=14;fontFamily=Times New Roman;" parent="1" source="b1KpcRNN4s81-unmqNno-5" target="b1KpcRNN4s81-unmqNno-7" edge="1">
          <mxGeometry width="50" height="50" relative="1" as="geometry">
            <mxPoint x="-565" y="-491.77272727272725" as="sourcePoint" />
            <mxPoint x="-229" y="-661.7727272727273" as="targetPoint" />
          </mxGeometry>
        </mxCell>
        <mxCell id="b1KpcRNN4s81-unmqNno-18" value="&lt;b style=&quot;font-size: 14px;&quot;&gt;List&amp;nbsp;&lt;/b&gt;&lt;b style=&quot;border-color: var(--border-color);&quot;&gt;instrument&lt;/b&gt;&lt;span style=&quot;font-size: 14px;&quot;&gt;&lt;b style=&quot;font-size: 14px;&quot;&gt;&lt;br style=&quot;font-size: 14px;&quot;&gt;&lt;/b&gt;&lt;/span&gt;" style="rounded=1;whiteSpace=wrap;html=1;fontSize=14;container=0;fontFamily=Times New Roman;" parent="1" vertex="1">
          <mxGeometry x="-518" y="-366.9836363636364" width="140" height="38.63636363636363" as="geometry" />
        </mxCell>
        <mxCell id="b1KpcRNN4s81-unmqNno-24" value="" style="endArrow=classic;html=1;rounded=0;exitX=0.5;exitY=0;exitDx=0;exitDy=0;entryX=0.5;entryY=1;entryDx=0;entryDy=0;fontSize=14;fontFamily=Times New Roman;" parent="1" source="b1KpcRNN4s81-unmqNno-39" target="b1KpcRNN4s81-unmqNno-7" edge="1">
          <mxGeometry width="50" height="50" relative="1" as="geometry">
            <mxPoint x="-640" y="-460.8636363636364" as="sourcePoint" />
            <mxPoint x="-590" y="-499.5" as="targetPoint" />
          </mxGeometry>
        </mxCell>
        <mxCell id="b1KpcRNN4s81-unmqNno-27" value="" style="ellipse;html=1;shape=endState;fillColor=strokeColor;container=0;fontFamily=Times New Roman;fontSize=14;" parent="1" vertex="1">
          <mxGeometry x="-463" y="80.00000000000001" width="30" height="30" as="geometry" />
        </mxCell>
        <mxCell id="b1KpcRNN4s81-unmqNno-28" value="&lt;b style=&quot;font-size: 14px;&quot;&gt;Creating tests&lt;/b&gt;" style="rounded=1;whiteSpace=wrap;html=1;fontSize=14;container=0;fontFamily=Times New Roman;" parent="1" vertex="1">
          <mxGeometry x="-518" y="-67.08727272727275" width="140" height="31.295454545454543" as="geometry" />
        </mxCell>
        <mxCell id="b1KpcRNN4s81-unmqNno-39" value="&lt;div style=&quot;font-size: 14px;&quot;&gt;&lt;b style=&quot;font-size: 14px;&quot;&gt;Cancel request&lt;/b&gt;&lt;/div&gt;" style="rounded=1;whiteSpace=wrap;html=1;fontSize=14;movable=1;resizable=1;rotatable=1;deletable=1;editable=1;locked=0;connectable=1;container=0;fontFamily=Times New Roman;" parent="1" vertex="1">
          <mxGeometry x="-533" y="-501.8181818181818" width="170" height="38.63636363636363" as="geometry" />
        </mxCell>
        <mxCell id="ZyNyjJbmjPur9EzDLIDT-97" value="&lt;div style=&quot;font-size: 14px;&quot;&gt;&lt;/div&gt;&lt;b style=&quot;border-color: var(--border-color); font-size: 14px;&quot;&gt;Update&amp;nbsp;&lt;b style=&quot;border-color: var(--border-color);&quot;&gt;instrument&lt;/b&gt;&amp;nbsp;&lt;br&gt;status&lt;br style=&quot;font-size: 14px;&quot;&gt;&lt;/b&gt;" style="rounded=1;whiteSpace=wrap;html=1;fontSize=14;container=0;fontFamily=Times New Roman;" parent="1" vertex="1">
          <mxGeometry x="-1211" y="-70.75545454545455" width="150" height="38.63636363636363" as="geometry" />
        </mxCell>
        <mxCell id="ZyNyjJbmjPur9EzDLIDT-99" value="" style="endArrow=classic;html=1;rounded=0;exitX=0.5;exitY=1;exitDx=0;exitDy=0;entryX=0.5;entryY=0;entryDx=0;entryDy=0;fontFamily=Times New Roman;fontSize=14;" parent="1" source="b1KpcRNN4s81-unmqNno-54" target="ZyNyjJbmjPur9EzDLIDT-97" edge="1">
          <mxGeometry width="50" height="50" relative="1" as="geometry">
            <mxPoint x="-1108" y="-219.35999999999999" as="sourcePoint" />
            <mxPoint x="-1058" y="-269.36" as="targetPoint" />
          </mxGeometry>
        </mxCell>
        <mxCell id="ZyNyjJbmjPur9EzDLIDT-100" value="" style="endArrow=classic;html=1;rounded=0;exitX=1;exitY=0.5;exitDx=0;exitDy=0;entryX=0;entryY=0.5;entryDx=0;entryDy=0;fontFamily=Times New Roman;fontSize=14;" parent="1" source="ZyNyjJbmjPur9EzDLIDT-97" target="b1KpcRNN4s81-unmqNno-28" edge="1">
          <mxGeometry width="50" height="50" relative="1" as="geometry">
            <mxPoint x="-1108" y="-219.35999999999999" as="sourcePoint" />
            <mxPoint x="-1058" y="-269.36" as="targetPoint" />
          </mxGeometry>
        </mxCell>
        <mxCell id="HtiF2qU-OBi0skmCbqNv-1" value="&lt;b style=&quot;font-size: 14px;&quot;&gt;Pocess&lt;br style=&quot;font-size: 14px;&quot;&gt;request&lt;/b&gt;" style="rounded=1;whiteSpace=wrap;html=1;fontSize=14;movable=1;resizable=1;rotatable=1;deletable=1;editable=1;locked=0;connectable=1;container=0;fontFamily=Times New Roman;" parent="1" vertex="1">
          <mxGeometry x="-1212.5" y="-405.6181818181818" width="90" height="38.63636363636363" as="geometry" />
        </mxCell>
        <mxCell id="HtiF2qU-OBi0skmCbqNv-2" value="" style="endArrow=classic;html=1;rounded=0;fontFamily=Times New Roman;fontSize=14;" parent="1" target="HtiF2qU-OBi0skmCbqNv-1" edge="1">
          <mxGeometry width="50" height="50" relative="1" as="geometry">
            <mxPoint x="-1167" y="-450" as="sourcePoint" />
            <mxPoint x="-960" y="-470" as="targetPoint" />
          </mxGeometry>
        </mxCell>
        <mxCell id="HtiF2qU-OBi0skmCbqNv-6" value="" style="endArrow=none;startArrow=none;html=1;rounded=0;startFill=0;endFill=0;edgeStyle=orthogonalEdgeStyle;dashed=1;dashPattern=1 2;fontSize=14;entryX=0.25;entryY=0;entryDx=0;entryDy=0;exitX=0.75;exitY=0;exitDx=0;exitDy=0;fontFamily=Times New Roman;" parent="1" source="HtiF2qU-OBi0skmCbqNv-1" target="b1KpcRNN4s81-unmqNno-18" edge="1">
          <mxGeometry width="50" height="50" relative="1" as="geometry">
            <mxPoint x="-1145" y="-406" as="sourcePoint" />
            <mxPoint x="-496" y="-366" as="targetPoint" />
            <Array as="points">
              <mxPoint x="-1145" y="-430" />
              <mxPoint x="-483" y="-430" />
            </Array>
          </mxGeometry>
        </mxCell>
        <mxCell id="HtiF2qU-OBi0skmCbqNv-5" value="Request&lt;br style=&quot;font-size: 14px;&quot;&gt;Form" style="rounded=0;whiteSpace=wrap;html=1;fontSize=14;container=0;fontFamily=Times New Roman;" parent="1" vertex="1">
          <mxGeometry x="-813" y="-450.0018181818182" width="100" height="36.31818181818182" as="geometry" />
        </mxCell>
        <mxCell id="b1KpcRNN4s81-unmqNno-23" value="Instrument&lt;br style=&quot;font-size: 14px;&quot;&gt;Form" style="rounded=0;whiteSpace=wrap;html=1;fontSize=14;container=0;fontFamily=Times New Roman;" parent="1" vertex="1">
          <mxGeometry x="-813" y="-366.9818181818182" width="100" height="36.31818181818182" as="geometry" />
        </mxCell>
      </root>
    </mxGraphModel>
  </diagram>
</mxfile>
